<svg width="26" height="20" viewBox="0 0 26 20" fill="none" xmlns="http://www.w3.org/2000/svg">
<path fill-rule="evenodd" clip-rule="evenodd" d="M17.8515 5.60483C17.8515 8.34613 15.6661 10.5442 12.9406 10.5442C10.2152 10.5442 8.02978 8.34613 8.02978 5.60483C8.02978 2.86248 10.2152 0.666504 12.9406 0.666504C15.6661 0.666504 17.8515 2.86248 17.8515 5.60483ZM12.9406 19.3332C8.93754 19.3332 5.51949 18.6985 5.51949 16.16C5.51949 13.6205 8.9156 12.9627 12.9406 12.9627C16.9436 12.9627 20.3617 13.5973 20.3617 16.1369C20.3617 18.6754 16.9656 19.3332 12.9406 19.3332ZM19.9501 5.69396C19.9501 7.0914 19.5332 8.39323 18.802 9.47546C18.7268 9.58683 18.7936 9.73708 18.9263 9.7602C19.1091 9.79172 19.2982 9.80958 19.4904 9.81483C21.4073 9.86527 23.1278 8.62438 23.6031 6.75622C24.3072 3.9813 22.2399 1.49008 19.6074 1.49008C19.3212 1.49008 19.0475 1.52055 18.7811 1.57518C18.7445 1.58359 18.7059 1.6004 18.685 1.63297C18.6599 1.6729 18.6787 1.72648 18.7038 1.76116C19.4946 2.87596 19.9501 4.23557 19.9501 5.69396ZM23.1247 11.7645C24.4127 12.0177 25.2599 12.5347 25.6109 13.2859C25.9076 13.9027 25.9076 14.6182 25.6109 15.2339C25.074 16.3992 23.343 16.7732 22.6703 16.8699C22.5313 16.8909 22.4196 16.7701 22.4342 16.6303C22.7779 13.4015 20.0441 11.8706 19.3368 11.5186C19.3065 11.5029 19.3003 11.4787 19.3034 11.464C19.3055 11.4535 19.318 11.4367 19.341 11.4335C20.8714 11.4051 22.5167 11.6153 23.1247 11.7645ZM6.51006 9.81466C6.70227 9.80941 6.8903 9.7926 7.07416 9.76003C7.20683 9.73691 7.27368 9.58666 7.19847 9.47528C6.46723 8.39305 6.05042 7.09123 6.05042 5.69379C6.05042 4.2354 6.50588 2.87579 7.29667 1.76099C7.32174 1.72631 7.3395 1.67273 7.31547 1.6328C7.29458 1.60128 7.25488 1.58342 7.21936 1.57501C6.95194 1.52037 6.67824 1.4899 6.39201 1.4899C3.75953 1.4899 1.69219 3.98113 2.39732 6.75605C2.87263 8.62421 4.59315 9.8651 6.51006 9.81466ZM6.69651 11.4634C6.69964 11.4791 6.69338 11.5023 6.66413 11.5191C5.95586 11.871 3.22205 13.4019 3.56573 16.6297C3.58036 16.7705 3.46963 16.8903 3.33069 16.8703C2.65795 16.7737 0.926982 16.3996 0.390039 15.2344C0.0923177 14.6176 0.0923177 13.9031 0.390039 13.2864C0.741037 12.5351 1.58719 12.0181 2.87523 11.7639C3.48425 11.6157 5.12851 11.4056 6.65995 11.434C6.68293 11.4371 6.69442 11.4539 6.69651 11.4634Z" fill="#FFCF00"/>
</svg>
