<svg width="24" height="24" viewBox="0 0 24 24" fill="none" xmlns="http://www.w3.org/2000/svg">
<path fill-rule="evenodd" clip-rule="evenodd" d="M17.1549 5.5485H17.3938C20.5345 5.5485 23.0834 8.1735 23.0834 11.3935V17.8335C23.0834 21.0535 20.5345 23.6668 17.3938 23.6668H6.60634C3.46569 23.6668 0.916748 21.0535 0.916748 17.8335V11.3935C0.916748 8.1735 3.46569 5.5485 6.60634 5.5485H6.84531C6.86807 4.1485 7.40289 2.84183 8.37012 1.86183C9.34873 0.870163 10.6004 0.368496 12.0115 0.333496C14.8335 0.333496 17.1207 2.66683 17.1549 5.5485ZM9.5649 3.11016C8.92766 3.7635 8.57491 4.62683 8.55215 5.5485H15.4479C15.4138 3.63516 13.889 2.0835 12.0114 2.0835C11.1352 2.0835 10.2249 2.44516 9.5649 3.11016ZM16.3241 10.0402C16.8021 10.0402 17.1776 9.64352 17.1776 9.16519V7.81186C17.1776 7.33352 16.8021 6.93686 16.3241 6.93686C15.8576 6.93686 15.4707 7.33352 15.4707 7.81186V9.16519C15.4707 9.64352 15.8576 10.0402 16.3241 10.0402ZM8.42698 9.16519C8.42698 9.64352 8.05147 10.0402 7.57354 10.0402C7.107 10.0402 6.7201 9.64352 6.7201 9.16519V7.81186C6.7201 7.33352 7.107 6.93686 7.57354 6.93686C8.05147 6.93686 8.42698 7.33352 8.42698 7.81186V9.16519Z" fill="#0985B9"/>
</svg>
