<svg width="24" height="24" viewBox="0 0 24 24" fill="none" xmlns="http://www.w3.org/2000/svg">
<path fill-rule="evenodd" clip-rule="evenodd" d="M6.5522 0.333984H17.4477C21.4155 0.333984 23.6555 2.58448 23.6672 6.55232V17.449C23.6672 21.4157 21.4155 23.6673 17.4477 23.6673H6.5522C2.58436 23.6673 0.333862 21.4157 0.333862 17.449V6.55232C0.333862 2.58448 2.58436 0.333984 6.5522 0.333984ZM12.0577 18.8373C12.5605 18.8373 12.9793 18.464 13.026 17.9623V6.07398C13.0727 5.71231 12.8988 5.34947 12.5838 5.15231C12.256 4.95397 11.8593 4.95397 11.5455 5.15231C11.2293 5.34947 11.0555 5.71231 11.0893 6.07398V17.9623C11.1488 18.464 11.5677 18.8373 12.0577 18.8373ZM17.4255 18.8373C17.9155 18.8373 18.3343 18.464 18.3938 17.9623V14.1357C18.4277 13.7612 18.2538 13.4123 17.9377 13.214C17.6238 13.0157 17.2272 13.0157 16.9005 13.214C16.5843 13.4123 16.4105 13.7612 16.4572 14.1357V17.9623C16.5038 18.464 16.9227 18.8373 17.4255 18.8373ZM7.58936 17.9624C7.54269 18.464 7.12386 18.8374 6.62102 18.8374C6.11936 18.8374 5.69936 18.464 5.65386 17.9624V9.90069C5.61886 9.53785 5.79269 9.17735 6.10886 8.97902C6.42269 8.78069 6.82052 8.78069 7.13552 8.97902C7.44936 9.17735 7.62552 9.53785 7.58936 9.90069V17.9624Z" fill="#FEAD86"/>
</svg>
