<svg width="18" height="20" viewBox="0 0 18 20" fill="none" xmlns="http://www.w3.org/2000/svg">
<path fill-rule="evenodd" clip-rule="evenodd" d="M4.81 0H13.191C16.28 0 18 1.78 18 4.83V15.16C18 18.26 16.28 20 13.191 20H4.81C1.77 20 0 18.26 0 15.16V4.83C0 1.78 1.77 0 4.81 0ZM5.07995 4.66006V4.65006H8.06895C8.49995 4.65006 8.84995 5.00006 8.84995 5.42906C8.84995 5.87006 8.49995 6.22006 8.06895 6.22006H5.07995C4.64895 6.22006 4.29995 5.87006 4.29995 5.44006C4.29995 5.01006 4.64895 4.66006 5.07995 4.66006ZM5.07995 10.7401H12.9199C13.3499 10.7401 13.6999 10.3901 13.6999 9.9601C13.6999 9.5301 13.3499 9.1791 12.9199 9.1791H5.07995C4.64895 9.1791 4.29995 9.5301 4.29995 9.9601C4.29995 10.3901 4.64895 10.7401 5.07995 10.7401ZM5.07997 15.31H12.92C13.319 15.27 13.62 14.929 13.62 14.53C13.62 14.12 13.319 13.78 12.92 13.74H5.07997C4.77997 13.71 4.48997 13.85 4.32997 14.11C4.16997 14.36 4.16997 14.69 4.32997 14.95C4.48997 15.2 4.77997 15.35 5.07997 15.31Z" fill="#4DBCFE"/>
</svg>
