<svg width="20" height="20" viewBox="0 0 20 20" fill="none" xmlns="http://www.w3.org/2000/svg">
<path fill-rule="evenodd" clip-rule="evenodd" d="M11.4498 2.88017H14.5198C18.2098 2.88017 20.0098 4.85017 19.9998 8.89017V13.7602C19.9998 17.6202 17.6198 20.0002 13.7498 20.0002H6.23976C2.38976 20.0002 -0.000244141 17.6202 -0.000244141 13.7502V6.24017C-0.000244141 2.10017 1.83976 0.000170661 5.46976 0.000170661H7.04976C7.98076 -0.00982934 8.84976 0.420171 9.41976 1.15017L10.2998 2.32017C10.5798 2.67017 10.9998 2.88017 11.4498 2.88017ZM5.3698 13.2902H14.6298C15.0398 13.2902 15.3698 12.9502 15.3698 12.5402C15.3698 12.1202 15.0398 11.7902 14.6298 11.7902H5.3698C4.9498 11.7902 4.6198 12.1202 4.6198 12.5402C4.6198 12.9502 4.9498 13.2902 5.3698 13.2902Z" fill="#8E7EFC"/>
</svg>
