<svg width="24" height="24" viewBox="0 0 24 24" fill="none" xmlns="http://www.w3.org/2000/svg">
<path fill-rule="evenodd" clip-rule="evenodd" d="M12.3809 0.578103C12.5672 0.410872 12.8136 0.323214 13.0659 0.334458C18.3985 0.494093 22.8552 4.36526 23.6629 9.53923C23.668 9.57012 23.668 9.60163 23.6629 9.63252C23.6803 9.87733 23.5976 10.1188 23.433 10.3037C23.2684 10.4885 23.0356 10.6013 22.786 10.6173L13.8266 11.2081C13.5303 11.2344 13.2364 11.1369 13.0172 10.9396C12.798 10.7423 12.6737 10.4634 12.675 10.1715L12.0727 1.37103V1.22591C12.0837 0.978401 12.1946 0.745333 12.3809 0.578103ZM11.7663 13.5093L19.5318 13.0118L19.5846 13.0325C19.9181 13.0379 20.2357 13.1732 20.4675 13.4084C20.6994 13.6436 20.8264 13.9596 20.8208 14.2867C20.5148 18.7459 17.2456 22.4716 12.7966 23.4314C8.34765 24.3913 3.78691 22.3548 1.60245 18.433C0.960128 17.3035 0.554227 16.0595 0.40857 14.7739C0.352077 14.393 0.327343 14.0082 0.334613 13.6233C0.349337 8.88175 3.7252 4.78908 8.44879 3.78626C9.02061 3.67923 9.59393 3.96473 9.84341 4.48076C9.90552 4.5744 9.95522 4.67541 9.99133 4.78137C10.0799 6.14827 10.1717 7.50222 10.2632 8.85046C10.3354 9.91514 10.4074 10.9763 10.4773 12.0374C10.4737 12.2874 10.513 12.5362 10.5935 12.7733C10.7831 13.24 11.255 13.5361 11.7663 13.5093Z" fill="#75578E"/>
</svg>
