<svg width="24" height="24" viewBox="0 0 24 24" fill="none" xmlns="http://www.w3.org/2000/svg">
<path fill-rule="evenodd" clip-rule="evenodd" d="M0.333374 10.4484C0.333374 4.8621 4.81377 0.333496 10.3406 0.333496C12.9947 0.333496 15.5401 1.39917 17.4168 3.29609C19.2935 5.193 20.3479 7.76577 20.3479 10.4484C20.3479 16.0347 15.8675 20.5633 10.3406 20.5633C4.81377 20.5633 0.333374 16.0347 0.333374 10.4484ZM20.1823 18.5968L23.1627 21.0026H23.2145C23.8174 21.6121 23.8174 22.6002 23.2145 23.2097C22.6115 23.8192 21.6339 23.8192 21.0309 23.2097L18.5575 20.375C18.3237 20.1395 18.1923 19.8196 18.1923 19.4859C18.1923 19.1522 18.3237 18.8323 18.5575 18.5968C19.0085 18.1489 19.7313 18.1489 20.1823 18.5968Z" fill="#00A198"/>
</svg>
